grf
version=1
nRows=18
nColumns=28
inDegrees=no
endheader
time	ground_force_1_vx	ground_force_1_vy	ground_force_1_vz	ground_force_1_px	ground_force_1_py	ground_force_1_pz	ground_moment_1_mx	ground_moment_1_my	ground_moment_1_mz	ground_force_2_vx	ground_force_2_vy	ground_force_2_vz	ground_force_2_px	ground_force_2_py	ground_force_2_pz	ground_moment_2_mx	ground_moment_2_my	ground_moment_2_mz	ground_force_3_vx	ground_force_3_vy	ground_force_3_vz	ground_force_3_px	ground_force_3_py	ground_force_3_pz	ground_moment_3_mx	ground_moment_3_my	ground_moment_3_mz
      0.30000000	      0.28290830	      0.44785735	      1.97914332	    307.34359601	  -1333.45018322	      2.16445957	      0.10708212	      0.38721033	    212.17041413	      0.38871580	      0.11548019	      2.54081038	    134.89927578	  -1649.20950622	      0.21054922	     -0.00193111	     -0.02497498	     29.92685255	      0.86664291	    -34.61278323	    -37.24566671	    478.76919609	   -453.38973997	      0.73687861	     -0.01713985	      0.12590810	     61.30970689
      0.31000000	      0.54989287	      0.23858457	      1.63660130	    309.22081488	  -1266.56307843	      2.04144339	      0.03955874	      0.14304491	     78.38090976	      0.54427221	      0.28217821	      2.25361778	    145.50967432	  -1578.15413685	      0.27053201	     -0.01702165	     -0.22013993	    263.78782739	     -0.47501053	    -10.69498290	     -5.38078322	    508.13990037	   -504.66975168	      0.85040024	     -0.08012255	      0.58857441	    286.60050828
      0.32000000	      0.39278345	      0.16880549	      1.41995534	    247.84252759	  -1234.87323301	      2.01458706	      0.06814391	      0.24640926	    135.01900890	      0.61193660	      0.29874182	      1.77070375	      3.51392881	  -1617.11590893	      0.22885442	     -0.01959570	     -0.25343001	    303.67844686	      1.41751174	     -1.00646850	      5.34295880	    460.87588017	   -360.29657303	      0.54069642	     -0.04773394	      0.35065001	    170.74556706
      0.33000000	      0.53036997	      0.07219848	      1.38750162	    253.62730133	  -1303.95584402	      2.13774304	      0.03157800	      0.11418647	     62.56803913	      0.67642318	      0.20545074	      1.91043025	    117.43598962	  -1603.24715987	      0.24777950	     -0.01522159	     -0.19685982	    235.89189449	      1.50393110	     -0.89449434	      4.77436913	    454.34691243	   -322.00526184	      0.46023459	     -0.07332543	      0.53864328	    262.28703677
      0.34000000	      0.52012228	      0.31643214	      1.69918338	    316.35752358	  -1318.24957141	      2.13216919	      0.04615115	      0.16688315	     91.44297924	      0.40089702	      0.31005875	      2.74234286	    235.66763819	  -1717.22793711	      0.16028789	     -0.00430828	     -0.05571876	     66.76631432	      1.61654354	     -0.80686509	      5.10347942	    468.05447572	   -336.95383062	      0.49476568	     -0.04999841	      0.36728463	    178.84563289
      0.35000000	      0.40443163	      0.36820278	      2.21698852	    367.11041642	  -1196.18976924	      1.88379552	      0.07509494	      0.27154427	    148.79163820	      0.50517830	      0.27206892	      1.92758979	     70.35320441	  -1588.19639875	      0.25730172	     -0.01333331	     -0.17243887	    206.62890903	      1.62251868	     -0.93161799	      4.78849852	    484.22693775	   -283.12800908	      0.38874800	     -0.07151085	      0.52531351	    255.79623558
      0.36000000	      0.46928314	      0.22827445	      2.00631398	    315.18568961	  -1267.65035466	      2.04041720	      0.06266434	      0.22659506	    124.16188982	      0.60150214	      0.20216125	      2.07220864	     85.10004681	  -1629.88267626	      0.22346469	     -0.00833967	     -0.10785649	    129.24156921	      1.48944046	     -0.62139118	      4.45866681	    449.25507191	   -286.71625110	      0.38634016	     -0.07852691	      0.57685296	    280.89286261
      0.37000000	      0.41525240	      0.27270166	      1.89895350	    313.57514840	  -1267.08567330	      2.04019950	      0.06357024	      0.22987080	    125.95682162	      0.71754520	      0.26448374	      2.81260853	    247.66222092	  -1635.01837185	      0.22966855	     -0.01161700	     -0.15024188	    180.03085714	      1.52114118	     -0.63036164	      4.28965329	    464.85038015	   -278.27089033	      0.37335628	     -0.09416199	      0.69170709	    336.81995111
      0.38000000	      0.41581374	      0.51888147	      2.28376362	    313.11601317	  -1296.07629645	      2.09333902	      0.06304454	      0.22796986	    124.91520589	      0.59278074	      0.26529717	      2.23808709	    182.26359290	  -1636.28573766	      0.22439086	     -0.01136594	     -0.14699499	    176.14019036	      1.38558385	     -0.90796819	      4.91812771	    454.35111671	   -320.44410376	      0.45702970	     -0.05604442	      0.41169823	    200.47239659
      0.39000000	      0.53618424	      0.35391156	      1.65788472	    268.08223190	  -1320.61530279	      2.16085112	      0.07873968	      0.28472372	    156.01326587	      0.40722671	      0.11532770	      2.27980442	    154.88350615	  -1594.22397529	      0.25772606	     -0.01135187	     -0.14681298	    175.92208779	      1.54014027	     -0.77588596	      4.96197899	    462.13519689	   -331.94349034	      0.48282144	     -0.06556494	      0.48163527	    234.52754828
      0.40000000	      0.44527715	      0.16698823	      2.21762102	    306.54957442	  -1291.88754881	      2.08900864	      0.04191120	      0.15155143	     83.04202564	      0.42823716	      0.07592613	      2.89026306	    205.45942594	  -1667.55807716	      0.19978981	     -0.00995997	     -0.12881168	    154.35161455	      1.62184388	     -0.77379302	      4.47456877	    486.61792993	   -285.64806802	      0.39459172	     -0.09250921	      0.67956590	    330.90791889
      0.41000000	      0.42049962	      0.38143880	      2.08445069	    322.94609927	  -1320.22861933	      2.13245570	      0.06385855	      0.23091334	    126.52807427	      0.62450583	      0.33499542	      2.03243186	     85.09908952	  -1619.10976419	      0.23245499	     -0.01423589	     -0.18411188	    220.61636696	      1.35056916	     -0.74277236	      4.83967883	    448.95276431	   -291.60912919	      0.39630386	     -0.06579183	      0.48330199	    235.33914221
      0.42000000	      0.47807049	      0.31253249	      1.98582892	    279.41147379	  -1278.39211881	      2.07807609	      0.05075563	      0.18353301	    100.56620654	      0.62963885	      0.14474859	      1.64916501	     38.21829782	  -1583.40887735	      0.25922348	     -0.01084134	     -0.14021035	    168.01033700	      1.41435253	     -0.84662334	      4.69445524	    451.65793865	   -310.54771642	      0.43595317	     -0.08315987	      0.61088632	    297.46507209
      0.43000000	      0.46733705	      0.33145699	      2.14997286	    309.08899649	  -1320.52416278	      2.13998873	      0.08415334	      0.30429958	    166.73978217	      0.44125005	      0.06862677	      2.47771611	    163.72519990	  -1610.50166310	      0.24471231	     -0.01035497	     -0.13392023	    160.47305040	      1.49675082	     -0.85320484	      5.12508791	    463.39243393	   -321.84951969	      0.46244353	     -0.08971867	      0.65906679	    320.92608094
      0.44000000	      0.48461889	      0.52305128	      1.63126474	    271.80975792	  -1313.13300794	      2.14531467	      0.09438638	      0.34130235	    187.01531158	      0.60062421	      0.38635255	      2.29006993	    197.06819852	  -1624.80558627	      0.23492675	     -0.00985927	     -0.12750935	    152.79106710	      1.37699031	     -0.76872848	      4.97282913	    438.74700593	   -322.62535560	      0.45714690	     -0.04036480	      0.29651688	    144.38597541
      0.45000000	      0.39952116	      2.58252705	      1.97801275	    361.59847530	  -1049.90934855	      1.61961608	      0.23590558	      0.85303764	    467.41869221	      7.15296809	     69.88098303	    -74.01331576	    394.23757184	  -1549.41502614	      0.31056565	      0.07776005	      1.00566597	  -1205.06279672	      1.30784863	     -1.09287377	      4.24039341	    447.27022716	   -344.41955813	      0.50428712	     -0.05554266	      0.40801235	    198.67759506
      0.46000000	      0.54186829	     -1.77532221	      3.77925481	    419.27010508	  -1467.98091851	      2.35348858	     -0.01419039	     -0.05131262	    -28.11655485	     93.03487711	    170.27655875	   -565.22303446	    384.03266044	  -1599.36303188	      0.26822383	     -0.19121670	     -2.47299369	   2963.32260726	      1.69166127	     -1.21112060	      6.37873622	    482.29425613	   -317.05700634	      0.45788566	     -0.14776643	      1.08548138	    528.56446076
      0.47000000	      1.46720505	     -0.71804295	      1.99113494	    582.47839640	  -1667.45399310	      2.63515531	     -0.19737925	     -0.71372592	   -391.08337425	    225.24840365	    402.95009393	  -1704.25063056	    391.68708884	  -1615.04597973	      0.25562980	     -0.11170130	     -1.44462595	   1731.05687529	      2.12962190	      0.18315108	      3.09894492	    489.78116891	   -175.58411801	      0.16944426	     -0.20856475	      1.53210143	    746.04169315
